<svg width="24" height="24" viewBox="0 0 24 24" fill="none" xmlns="http://www.w3.org/2000/svg">
<path d="M8.11111 14.2222H9.22222C9.53704 14.2222 9.80111 14.1156 10.0144 13.9022C10.227 13.6896 10.3333 13.4259 10.3333 13.1111V12H9.22222V13.1111H8.11111V10.8889H10.3333C10.3333 10.5741 10.227 10.31 10.0144 10.0967C9.80111 9.88407 9.53704 9.77778 9.22222 9.77778H8.11111C7.7963 9.77778 7.53259 9.88407 7.32 10.0967C7.10667 10.31 7 10.5741 7 10.8889V13.1111C7 13.4259 7.10667 13.6896 7.32 13.9022C7.53259 14.1156 7.7963 14.2222 8.11111 14.2222ZM11.4444 14.2222H12.5556V9.77778H11.4444V14.2222ZM13.6667 14.2222H14.7778V12.5556H16.4444V11.4444H14.7778V10.8889H17V9.77778H13.6667V14.2222ZM4.22222 22C3.61111 22 3.08778 21.7826 2.65222 21.3478C2.21741 20.9122 2 20.3889 2 19.7778V4.22222C2 3.61111 2.21741 3.08778 2.65222 2.65222C3.08778 2.21741 3.61111 2 4.22222 2H19.7778C20.3889 2 20.9122 2.21741 21.3478 2.65222C21.7826 3.08778 22 3.61111 22 4.22222V19.7778C22 20.3889 21.7826 20.9122 21.3478 21.3478C20.9122 21.7826 20.3889 22 19.7778 22H4.22222ZM4.22222 19.7778H19.7778V4.22222H4.22222V19.7778ZM4.22222 4.22222V19.7778V4.22222Z" fill="#4269F2"/>
</svg>
