<svg width="50" height="23" viewBox="0 0 50 23" fill="none" xmlns="http://www.w3.org/2000/svg">
<rect width="50" height="22.6668" rx="11.3334" fill="#252630"/>
<path d="M15.9745 11.8728C15.8697 13.0076 15.4438 14.0891 14.7467 14.9907C14.0496 15.8923 13.1102 16.5767 12.0383 16.9638C10.9665 17.351 9.80653 17.4249 8.69421 17.1769C7.58189 16.9289 6.56321 16.3692 5.75736 15.5633C4.95151 14.7575 4.39184 13.7388 4.14382 12.6265C3.89579 11.5142 3.96969 10.3542 4.35685 9.28234C4.74401 8.21049 5.42843 7.27106 6.33002 6.57398C7.23161 5.87691 8.31307 5.45102 9.44788 5.34615C8.78349 6.24499 8.46378 7.35245 8.5469 8.46709C8.63002 9.58173 9.11045 10.6295 9.90081 11.4199C10.6912 12.2102 11.739 12.6907 12.8536 12.7738C13.9682 12.8569 15.0757 12.5372 15.9745 11.8728V11.8728Z" stroke="#A6A6AA" stroke-linecap="round" stroke-linejoin="round"/>
<rect x="29.3336" y="2" width="18.6663" height="18.6668" rx="9.33317" fill="#4269F2"/>
<path d="M38.667 14.6667C40.5079 14.6667 42.0003 13.1743 42.0003 11.3333C42.0003 9.49238 40.5079 8 38.667 8C36.826 8 35.3336 9.49238 35.3336 11.3333C35.3336 13.1743 36.826 14.6667 38.667 14.6667Z" stroke="#3A3A3A" stroke-linecap="round" stroke-linejoin="round"/>
<path d="M38.6666 4V5.33333" stroke="#3A3A3A" stroke-linecap="round" stroke-linejoin="round"/>
<path d="M38.6666 17.3335V18.6668" stroke="#3A3A3A" stroke-linecap="round" stroke-linejoin="round"/>
<path d="M33.4801 6.14697L34.4268 7.09364" stroke="#3A3A3A" stroke-linecap="round" stroke-linejoin="round"/>
<path d="M42.9069 15.5737L43.8535 16.5204" stroke="#3A3A3A" stroke-linecap="round" stroke-linejoin="round"/>
<path d="M31.3336 11.3335H32.667" stroke="#3A3A3A" stroke-linecap="round" stroke-linejoin="round"/>
<path d="M44.6666 11.3335H46" stroke="#3A3A3A" stroke-linecap="round" stroke-linejoin="round"/>
<path d="M33.4801 16.5204L34.4268 15.5737" stroke="#3A3A3A" stroke-linecap="round" stroke-linejoin="round"/>
<path d="M42.9069 7.09364L43.8535 6.14697" stroke="#3A3A3A" stroke-linecap="round" stroke-linejoin="round"/>
</svg>
